<?xml version="1.0" encoding="utf-8"?>
<!-- Generator: Adobe Illustrator 25.3.0, SVG Export Plug-In . SVG Version: 6.00 Build 0)  -->
<svg version="1.1" xmlns="http://www.w3.org/2000/svg" xmlns:xlink="http://www.w3.org/1999/xlink" x="0px" y="0px"
	 viewBox="0 0 500 500" style="enable-background:new 0 0 500 500;" xml:space="preserve">
<style type="text/css">
	.st0{fill:#D31216;stroke:#000000;stroke-miterlimit:10;}
	.st1{fill:#FFFFFF;stroke:#000000;stroke-miterlimit:10;}
	.st2{fill:#E00914;stroke:#000000;stroke-miterlimit:10;}
</style>
<g id="Cross">
</g>
<g id="Circle">
</g>
<g id="Write">
</g>
<g id="Mesh">
</g>
<g id="Cut">
	<g>
		<path class="st0" d="M134.98,96.36c8.87,7.72,17.74,15.44,26.61,23.16c8.71-8.32,17.42-16.64,26.13-24.96
			c2.31,2.44,4.62,4.88,6.92,7.32c-8.76,8.19-17.51,16.39-26.27,24.58c10.41,7.48,20.82,14.95,31.22,22.43
			c-2.46,2.73-4.93,5.46-7.39,8.2c-10.13-7.99-20.27-15.98-30.4-23.96c-8.77,8.72-17.54,17.43-26.31,26.15
			c-2.42-2.56-4.83-5.12-7.25-7.68c8.65-8.28,17.3-16.56,25.95-24.85c-8.81-8.08-17.62-16.16-26.44-24.24
			C130.17,100.45,132.58,98.4,134.98,96.36z"/>
		<path class="st1" d="M87.58,131.58c-1.02-18.01-15.97-32.62-33.7-33.45c-19.9-0.93-37.72,15.78-37.22,36.36
			c0.47,19.58,17.35,35.61,37.22,34.63C73.65,168.15,88.67,150.75,87.58,131.58z M78.96,131.93c0.7,14.19-9.98,27.64-24.71,28.72
			c-14.99,1.1-27.63-11.08-28.68-25.36c-1.13-15.35,11.39-29.56,26.84-29.48C66.53,105.89,78.27,117.86,78.96,131.93z"/>
		<path class="st1" d="M203.54,230.29c-1.02-18.01-15.97-32.62-33.7-33.45c-19.9-0.93-37.72,15.78-37.22,36.36
			c0.47,19.58,17.35,35.61,37.22,34.63C189.6,266.86,204.62,249.46,203.54,230.29z M194.92,230.64c0.7,14.19-9.98,27.64-24.71,28.72
			c-14.99,1.1-27.63-11.08-28.68-25.36c-1.13-15.35,11.39-29.56,26.84-29.48C182.48,204.6,194.22,216.57,194.92,230.64z"/>
		<path class="st1" d="M314.2,335.18c-1.02-18.01-15.97-32.62-33.7-33.45c-19.9-0.93-37.72,15.78-37.22,36.36
			c0.47,19.58,17.35,35.61,37.22,34.63C300.26,371.75,315.28,354.35,314.2,335.18z M305.58,335.53c0.7,14.19-9.98,27.64-24.71,28.72
			c-14.99,1.1-27.63-11.08-28.68-25.36c-1.13-15.35,11.39-29.56,26.84-29.48C293.14,309.49,304.88,321.46,305.58,335.53z"/>
		<polygon class="st1" points="290.51,181.88 290.51,264.51 307.72,254.05 307.72,181.88 		"/>
		<polygon class="st1" points="334.17,223.2 334.17,259.43 353.06,254.05 353.06,217.08 		"/>
		<path class="st1" d="M410.16,214.56c-8.96-4.01-17.91-8.02-26.87-12.03c-7.42,5.27-14.83,10.54-22.25,15.81
			c0.14,9.94,0.28,19.87,0.42,29.81l24.35,11.29l24.35-12.55l-12.59-8.63l-11.75,5.27l-9.66-5.27c-0.14-4.68-0.28-9.36-0.42-14.04
			c3.08-2.1,6.16-4.2,9.24-6.3c4.76,1.76,9.52,3.52,14.27,5.28C402.88,220.32,406.52,217.44,410.16,214.56z"/>
		<path class="st1" d="M496.72,320.45c-8.96-4.01-17.91-8.02-26.87-12.03c-7.42,5.27-14.83,10.54-22.25,15.81
			c0.14,9.94,0.28,19.87,0.42,29.81l24.35,11.29l24.35-12.55l-12.59-8.63l-11.75,5.27l-9.66-5.27c-0.14-4.68-0.28-9.36-0.42-14.04
			c3.08-2.1,6.16-4.2,9.24-6.3c4.76,1.76,9.52,3.52,14.27,5.28C489.44,326.21,493.08,323.33,496.72,320.45z"/>
		<polygon class="st1" points="353.06,290.12 353.06,457 370.28,435.87 370.28,290.12 		"/>
		<path class="st1" d="M442.7,345.65c-0.51,0.38-2.96,2.14-6.3,1.68c-2.33-0.32-3.87-1.56-4.47-2.1c0-8.26,0-16.52,0-24.78
			c-8.96-4.01-17.91-8.02-26.87-12.03c-7.42,5.27-14.83,10.54-22.25,15.81c0.14,9.94,0.28,19.87,0.42,29.81l24.35,11.29
			c5.63-2.9,11.26-5.8,16.9-8.71c0.82,1,3.8,4.4,8.99,5.41c6.2,1.2,10.89-1.92,11.75-2.52C444.37,354.88,443.53,350.27,442.7,345.65
			z M406.41,352.26c-4.15-1.57-8.29-3.15-12.44-4.72c-0.1-5.77-0.21-11.54-0.31-17.32c4.15-3.04,8.29-6.09,12.44-9.13
			c4.88,2.39,9.76,4.78,14.64,7.16c0.1,5.64,0.21,11.28,0.31,16.92C416.17,347.54,411.29,349.9,406.41,352.26z"/>
		<path class="st1" d="M497,386.3c-8.12-3.64-16.24-7.27-24.35-10.91c-7.42,5.27-14.83,10.54-22.25,15.81
			c0.14,9.94,0.28,19.87,0.42,29.81l24.35,11.29c8.28-3.83,16.56-7.67,24.84-11.5c-3.94-2.62-7.87-5.25-11.81-7.87
			c-4.3,2.1-8.61,4.2-12.91,6.3c-3.36-1.78-6.72-3.57-10.08-5.35c-0.04-5.6-0.08-11.19-0.12-16.79c3.08-2.1,6.16-4.2,9.24-6.3
			c3.63,1.34,7.25,2.69,10.88,4.03c0.1,1.68,0.21,3.36,0.31,5.04c-1.84,0.73-3.67,1.47-5.51,2.2c-4.92,0.16-9.84,0.33-14.75,0.49
			c-0.02,2.57-0.05,5.13-0.07,7.7c6.15-0.16,12.3-0.32,18.45-0.47c4.46-2.57,8.92-5.14,13.38-7.71
			C497.01,396.8,497,391.55,497,386.3z"/>
		<path class="st1" d="M435.77,418.9c-0.35-10.49-0.7-20.99-1.05-31.48c-8.96-4.01-17.91-8.02-26.87-12.03
			c-7.42,5.27-14.83,10.54-22.25,15.81c0.14,9.94,0.28,19.87,0.42,29.81l24.35,11.29C418.84,427.83,427.3,423.37,435.77,418.9z
			 M409.48,420.16c-4.25-2.47-8.5-4.93-12.75-7.4c-0.09-5.19-0.18-10.38-0.27-15.57c4.15-3.04,8.29-6.09,12.44-9.13
			c5.39,2.36,10.78,4.71,16.18,7.07c0.05,5.46,0.1,10.92,0.16,16.37C419.97,414.39,414.73,417.28,409.48,420.16z"/>
		<path class="st1" d="M203.59,67.78c4.4,36.46,7.63,76.14,8.88,118.67c2.06,70.19-1.71,133.7-8.06,188.94
			c7.4-6.58,14.79-13.15,22.19-19.73c6.75-53.25,10.76-117.17,6.96-189.13c-2.39-45.31-7.5-86.69-13.84-123.53
			C214.34,51.26,208.97,59.52,203.59,67.78z"/>
		<path class="st1" d="M38.92,202.52c20.39-4.19,53.14-9.81,93.82-11.58c64.65-2.81,92.49,6.58,148.1,3.5
			c26.93-1.5,67.04-6.29,115.94-22.41c-10.79-2.9-21.59-5.79-32.38-8.69c-15.41,3.43-39.16,7.99-68.43,10.5
			c-55.71,4.78-92.38-1.2-125.52-3.36c-37.42-2.44-92.27-1.44-162.22,16.21C18.46,191.97,28.69,197.24,38.92,202.52z"/>
		<path class="st1" d="M94.75,115.42c3.8,35.78,6.38,74.7,6.93,116.36c0.91,68.77-3.91,130.92-11.17,184.91
			c7.5-6.32,15.01-12.64,22.51-18.96c7.63-52.04,12.69-114.58,10.08-185.13c-1.64-44.41-6.07-85.02-11.8-121.2
			C105.77,99.41,100.26,107.41,94.75,115.42z"/>
		<path class="st1" d="M50.37,306.98c22.44-4.24,58.47-9.94,103.22-11.8c71.11-2.96,101.7,6.37,162.88,3.16
			c29.62-1.56,73.75-6.44,127.57-22.68c-11.86-2.87-23.73-5.74-35.59-8.62c-16.96,3.47-43.09,8.08-75.29,10.65
			c-61.28,4.9-101.6-0.99-138.05-3.07c-41.15-2.35-101.48-1.23-178.45,16.59C27.89,296.47,39.13,301.73,50.37,306.98z"/>
		<path class="st2" d="M0,90.82c107.79,95.72,215.58,191.44,323.36,287.15c-1.59-8.52-3.17-17.03-4.76-25.55
			C221.32,266.8,124.04,181.17,26.76,95.54C17.84,93.96,8.92,92.39,0,90.82z"/>
	</g>
</g>
</svg>
